<svg id="Layer_1" data-name="Layer 1" xmlns="http://www.w3.org/2000/svg" viewBox="0 0 416 512"><defs><style>.cls-1{fill:#637381;}</style></defs><path class="cls-1" d="M424,64H336V48A48,48,0,0,0,288,0H224a48,48,0,0,0-48,48V64H88a40,40,0,0,0-40,40v32a16,16,0,0,0,16,16H448a16,16,0,0,0,16-16V104A40,40,0,0,0,424,64ZM208,48a16,16,0,0,1,16-16h64a16,16,0,0,1,16,16V64H208Z" transform="translate(-48 0)"/><path class="cls-1" d="M78.36,184a5,5,0,0,0-5,5.24l13.2,277A47.94,47.94,0,0,0,134.51,512h243a47.94,47.94,0,0,0,47.94-45.72l13.2-277a5,5,0,0,0-5-5.24ZM320,224a16,16,0,0,1,32,0V432a16,16,0,0,1-32,0Zm-80,0a16,16,0,0,1,32,0V432a16,16,0,0,1-32,0Zm-80,0a16,16,0,0,1,32,0V432a16,16,0,0,1-32,0Z" transform="translate(-48 0)"/></svg>