<svg id="Capa_1" data-name="Capa 1" xmlns="http://www.w3.org/2000/svg" viewBox="0 0 512 512"><defs><style>.cls-1{fill:#637381;}</style></defs><path class="cls-1" d="M352,448H64V160H209.57l64-64H56.06A56.06,56.06,0,0,0,0,152V456a56,56,0,0,0,56.06,56H360a56,56,0,0,0,56-56V225.05l-64,64Z" transform="translate(0 0)"/><polygon class="cls-1" points="148.67 264.93 116.74 392.93 244.74 360.93 148.67 264.93"/><polygon class="cls-1" points="318.82 96 254.82 160 171.97 242.88 262.43 333.41 352 243.84 416 179.84 443.42 152.39 352.93 61.89 318.82 96"/><path class="cls-1" d="M502.62,54.63,457.38,9.38A31.89,31.89,0,0,0,434.91,0h-.34a31.77,31.77,0,0,0-22.44,9.38L389.5,32,480,122.5l22.62-22.63A31.84,31.84,0,0,0,512,77.42v-.34A31.83,31.83,0,0,0,502.62,54.63Z" transform="translate(0 0)"/></svg>