<svg xmlns="http://www.w3.org/2000/svg" viewBox="0 0 2134 520" width="2134" height="520">
	<defs>
		<linearGradient id="grd1" gradientUnits="userSpaceOnUse"  x1="261.553" y1="217.847" x2="261.553" y2="-16.003">
			<stop offset="0.5" stop-color="#0a0809"  />
			<stop offset="0.5" stop-color="#78827f"  />
		</linearGradient>
		<linearGradient id="grd2" gradientUnits="userSpaceOnUse"  x1="333781.509" y1="180388.917" x2="333781.509" y2="125701.437">
			<stop offset="0.5" stop-color="#0a0809"  />
			<stop offset="0.5" stop-color="#78827f"  />
		</linearGradient>
	</defs>
	<style>
		tspan { white-space:pre }
		.shp0 { fill: #ffffff } 
		.shp1 { fill: #ff561d } 
		.shp2 { fill: url(#grd1) } 
		.shp3 { fill: url(#grd2) } 
	</style>
	<g id="Layer_2">
		<g id="Layer_1-2">
			<path id="Layer" class="shp0" d="M500.42 272.11C500.42 282.73 497.83 291.82 492.66 299.39C487.49 306.96 479.85 312.69 469.76 316.58C459.65 320.48 447.36 322.43 432.9 322.44C419.08 322.44 407.24 320.32 397.37 316.09C387.5 311.86 380.22 306.57 375.53 300.23C370.86 293.89 368.53 287.52 368.53 281.13C368.51 280.12 368.6 279.12 368.79 278.13C368.97 277.14 369.26 276.17 369.64 275.24C370.03 274.31 370.5 273.42 371.07 272.59C371.63 271.76 372.28 270.98 373 270.28C373.75 269.54 374.56 268.87 375.45 268.29C376.33 267.71 377.26 267.23 378.24 266.84C379.22 266.46 380.24 266.17 381.28 265.99C382.31 265.81 383.37 265.74 384.42 265.77C388.46 265.77 391.56 266.77 393.72 268.77C394.34 269.37 394.94 270 395.52 270.66C396.09 271.31 396.64 271.98 397.16 272.68C397.67 273.38 398.17 274.09 398.63 274.83C399.09 275.57 399.52 276.32 399.92 277.09C403.87 283.95 408.6 289.07 414.09 292.45C419.58 295.83 427.08 297.52 436.57 297.53C444.27 297.53 450.6 295.81 455.57 292.38C460.54 288.95 463 285.02 462.97 280.61C462.97 273.84 460.41 268.91 455.29 265.81C450.17 262.71 441.74 259.75 429.99 256.93C416.74 253.64 405.96 250.19 397.64 246.57C389.32 242.95 382.67 238.18 377.69 232.26C372.71 226.34 370.22 219.06 370.22 210.41C370.23 208.47 370.38 206.53 370.68 204.62C370.98 202.7 371.43 200.81 372.01 198.96C372.6 197.11 373.32 195.31 374.18 193.57C375.03 191.83 376.02 190.15 377.13 188.56C381.73 181.71 388.52 176.23 397.49 172.14C406.46 168.05 417.3 166 429.99 166.01C432.25 165.98 434.51 166.03 436.76 166.15C439.02 166.26 441.27 166.45 443.51 166.71C445.76 166.97 447.99 167.3 450.21 167.7C452.44 168.1 454.65 168.57 456.84 169.11C458.59 169.53 460.33 170.02 462.04 170.58C463.76 171.14 465.45 171.77 467.11 172.47C468.78 173.16 470.41 173.93 472.01 174.75C473.61 175.58 475.18 176.47 476.71 177.43C477.9 178.18 479.05 178.98 480.16 179.84C481.27 180.71 482.33 181.62 483.34 182.6C484.36 183.57 485.32 184.59 486.23 185.66C487.14 186.73 487.99 187.84 488.79 189C489.43 189.9 490 190.85 490.5 191.84C491 192.82 491.43 193.84 491.78 194.89C492.13 195.94 492.41 197.02 492.6 198.1C492.79 199.19 492.91 200.29 492.94 201.4C492.97 202.41 492.9 203.41 492.72 204.41C492.55 205.4 492.26 206.37 491.88 207.3C491.5 208.23 491.02 209.12 490.45 209.95C489.89 210.79 489.23 211.56 488.5 212.25C485.54 215.07 481.34 216.48 475.89 216.48C474.99 216.51 474.08 216.45 473.18 216.32C472.29 216.19 471.41 215.97 470.55 215.69C469.69 215.4 468.86 215.04 468.07 214.6C467.27 214.17 466.52 213.67 465.81 213.1C464.93 212.34 464.07 211.56 463.23 210.75C462.4 209.95 461.58 209.12 460.78 208.27C459.99 207.43 459.22 206.56 458.47 205.67C457.72 204.78 456.99 203.88 456.29 202.95C455.59 202.04 454.85 201.16 454.07 200.33C453.28 199.49 452.46 198.69 451.59 197.94C450.73 197.18 449.83 196.47 448.89 195.81C447.96 195.14 446.99 194.52 446 193.95C442.06 191.69 436.71 190.56 429.94 190.57C422.98 190.57 417.2 192.05 412.6 195.01C408 197.97 405.7 201.63 405.69 206C405.68 206.97 405.78 207.93 406 208.88C406.23 209.82 406.56 210.73 407 211.6C407.44 212.46 407.98 213.26 408.62 214C409.25 214.73 409.97 215.38 410.76 215.94C411.79 216.67 412.85 217.36 413.95 218C415.04 218.64 416.16 219.23 417.31 219.77C418.46 220.3 419.63 220.79 420.82 221.22C422.01 221.65 423.22 222.03 424.44 222.35C430.17 224.05 438.07 226.12 448.12 228.56C460.04 231.47 469.79 234.95 477.37 239C484.95 243.05 490.68 247.81 494.57 253.3C495.54 254.66 496.39 256.1 497.13 257.6C497.87 259.09 498.49 260.65 498.99 262.24C499.48 263.84 499.85 265.47 500.09 267.12C500.33 268.77 500.44 270.44 500.42 272.11Z" />
			<path id="Layer" class="shp0" d="M570.61 132.14L570.61 189.23C571.66 187.98 572.75 186.76 573.88 185.57C575.01 184.38 576.17 183.23 577.37 182.11C578.56 180.99 579.79 179.91 581.05 178.86C582.31 177.82 583.6 176.81 584.92 175.84C586.09 175.01 587.3 174.24 588.53 173.51C589.77 172.79 591.04 172.11 592.33 171.49C593.62 170.87 594.94 170.31 596.28 169.8C597.62 169.29 598.98 168.84 600.36 168.44C601.84 168.02 603.33 167.66 604.83 167.34C606.33 167.03 607.84 166.77 609.36 166.57C610.88 166.37 612.41 166.22 613.94 166.12C615.47 166.03 617.01 165.99 618.54 166C620.79 165.96 623.04 166.06 625.28 166.3C627.52 166.54 629.74 166.93 631.93 167.45C634.12 167.97 636.28 168.63 638.39 169.43C640.49 170.22 642.55 171.15 644.54 172.2C647.58 173.96 650.42 176.05 653.01 178.43C655.6 180.81 657.92 183.46 659.92 186.35C661.93 189.23 663.62 192.33 664.96 195.58C666.29 198.83 667.26 202.22 667.86 205.68C668.11 207.31 668.33 208.94 668.51 210.57C668.7 212.2 668.85 213.84 668.96 215.48C669.08 217.12 669.17 218.76 669.22 220.41C669.27 222.05 669.29 223.7 669.27 225.34L669.27 299C669.27 306.7 667.51 312.52 663.99 316.47C660.47 320.42 655.8 322.39 649.99 322.4C637.32 322.4 630.99 314.6 630.99 299L630.99 234C630.99 221.69 629.16 212.22 625.5 205.6C621.84 198.98 614.88 195.67 604.63 195.66C602.98 195.64 601.34 195.76 599.71 196C598.08 196.24 596.47 196.61 594.9 197.11C593.33 197.6 591.8 198.22 590.33 198.96C588.85 199.7 587.44 200.55 586.1 201.51C584.71 202.51 583.4 203.6 582.17 204.79C580.94 205.98 579.8 207.25 578.76 208.61C577.72 209.96 576.77 211.39 575.94 212.88C575.1 214.37 574.37 215.91 573.76 217.51C571.7 223.24 570.67 233.43 570.66 248.1L570.66 299C570.66 306.61 568.95 312.41 565.52 316.4C562.09 320.39 557.32 322.39 551.21 322.4C538.54 322.4 532.21 314.6 532.21 299L532.21 132.14C532.21 124.34 533.88 118.49 537.21 114.59C540.54 110.69 545.21 108.74 551.21 108.74C557.32 108.74 562.09 110.71 565.52 114.66C568.95 118.61 570.64 124.43 570.61 132.14Z" />
			<path id="Layer" class="shp0" d="M726.8 148.07C725.55 148.1 724.31 148.01 723.08 147.81C721.85 147.62 720.64 147.3 719.46 146.88C718.29 146.46 717.16 145.93 716.08 145.3C715.01 144.67 713.99 143.95 713.05 143.13C709.25 139.85 707.35 135.2 707.34 129.18C707.31 127.92 707.41 126.65 707.65 125.41C707.89 124.17 708.27 122.96 708.77 121.8C709.27 120.64 709.9 119.54 710.65 118.52C711.39 117.5 712.24 116.56 713.19 115.72C714.1 114.87 715.09 114.11 716.15 113.44C717.21 112.78 718.32 112.22 719.49 111.76C720.65 111.31 721.85 110.97 723.08 110.75C724.31 110.52 725.55 110.42 726.8 110.43C728 110.42 729.2 110.51 730.38 110.72C731.56 110.92 732.73 111.22 733.86 111.63C734.98 112.04 736.07 112.55 737.11 113.15C738.15 113.75 739.13 114.44 740.05 115.22C743.9 118.42 745.83 123.09 745.83 129.22C745.83 135.14 743.95 139.77 740.19 143.1C739.28 143.91 738.3 144.64 737.25 145.27C736.21 145.9 735.11 146.43 733.97 146.86C732.82 147.28 731.64 147.6 730.44 147.8C729.24 148 728.02 148.09 726.8 148.07ZM745.8 187.82L745.8 299C745.8 306.7 743.97 312.52 740.3 316.47C739.42 317.44 738.43 318.3 737.37 319.06C736.3 319.82 735.15 320.45 733.95 320.96C732.74 321.47 731.49 321.85 730.2 322.09C728.92 322.34 727.61 322.44 726.3 322.4C725 322.44 723.71 322.33 722.44 322.09C721.17 321.84 719.93 321.45 718.74 320.93C717.56 320.4 716.43 319.75 715.39 318.97C714.35 318.2 713.4 317.31 712.56 316.33C709.04 312.29 707.28 306.51 707.27 299L707.27 189C707.27 181.38 709.03 175.65 712.56 171.8C713.43 170.85 714.4 169.99 715.45 169.24C716.5 168.5 717.63 167.87 718.82 167.37C720.01 166.87 721.25 166.51 722.52 166.27C723.79 166.04 725.08 165.95 726.37 166C727.67 165.96 728.97 166.06 730.25 166.29C731.53 166.52 732.79 166.89 733.99 167.39C735.19 167.88 736.34 168.51 737.41 169.25C738.49 169.98 739.48 170.83 740.37 171.78C744 175.61 745.82 180.95 745.83 187.82L745.8 187.82Z" />
			<path id="Layer" class="shp0" d="M820.53 187.25L820.53 191.91C827.3 182.98 834.7 176.42 842.74 172.24C850.78 168.06 860.01 165.98 870.43 166C872.79 165.96 875.15 166.07 877.5 166.33C879.84 166.59 882.17 167 884.46 167.56C886.76 168.12 889.01 168.83 891.21 169.67C893.42 170.52 895.56 171.51 897.64 172.63C899.57 173.67 901.42 174.87 903.17 176.2C904.91 177.53 906.55 179 908.07 180.59C909.59 182.17 910.98 183.88 912.23 185.69C913.48 187.49 914.59 189.39 915.54 191.37C916.18 192.55 916.76 193.76 917.28 194.99C917.81 196.23 918.28 197.49 918.69 198.76C919.11 200.04 919.46 201.33 919.76 202.64C920.06 203.95 920.29 205.27 920.47 206.6C920.68 208.33 920.86 210.06 921.01 211.8C921.17 213.53 921.29 215.27 921.38 217.01C921.48 218.75 921.54 220.49 921.58 222.23C921.62 223.98 921.62 225.72 921.6 227.46L921.6 299C921.6 306.7 919.84 312.52 916.32 316.47C914.53 318.35 912.38 319.85 909.99 320.87C907.61 321.89 905.04 322.41 902.44 322.39C899.84 322.38 897.28 321.84 894.9 320.79C892.53 319.75 890.39 318.23 888.62 316.33C885.05 312.29 883.26 306.51 883.26 299L883.26 234.9C883.26 222.23 881.5 212.53 877.98 205.79C874.46 199.05 867.43 195.69 856.9 195.71C855.23 195.7 853.56 195.83 851.9 196.09C850.25 196.35 848.62 196.74 847.03 197.26C845.44 197.78 843.89 198.42 842.41 199.19C840.92 199.96 839.5 200.84 838.15 201.84C836.73 202.89 835.38 204.05 834.13 205.3C832.88 206.55 831.72 207.9 830.67 209.33C829.62 210.75 828.68 212.25 827.86 213.82C827.03 215.39 826.33 217.02 825.75 218.69C823.87 224.42 822.93 235.13 822.93 250.83L822.93 299C822.93 306.8 821.12 312.65 817.5 316.54C816.61 317.5 815.63 318.36 814.56 319.11C813.49 319.86 812.34 320.49 811.14 320.99C809.93 321.5 808.68 321.87 807.39 322.11C806.11 322.34 804.8 322.44 803.5 322.4C802.21 322.43 800.92 322.32 799.66 322.07C798.39 321.82 797.16 321.43 795.98 320.91C794.8 320.38 793.69 319.73 792.65 318.96C791.62 318.19 790.67 317.31 789.83 316.33C786.25 312.29 784.46 306.51 784.47 299L784.47 187.82C784.47 180.49 786.07 175.01 789.26 171.4C792.45 167.79 796.82 165.99 802.35 166C803.15 165.99 803.95 166.03 804.74 166.13C805.53 166.22 806.32 166.38 807.09 166.58C807.87 166.78 808.62 167.03 809.36 167.34C810.1 167.64 810.82 168 811.51 168.4C812.21 168.83 812.89 169.3 813.52 169.82C814.16 170.35 814.76 170.91 815.31 171.52C815.86 172.13 816.38 172.77 816.84 173.46C817.3 174.14 817.71 174.85 818.07 175.59C818.5 176.49 818.88 177.42 819.2 178.37C819.52 179.32 819.79 180.29 819.99 181.27C820.2 182.25 820.35 183.25 820.44 184.25C820.53 185.24 820.56 186.25 820.53 187.25Z" />
			<path id="Layer" fill-rule="evenodd" class="shp0" d="M1067.35 253.65L992.08 253.65C992.06 255.64 992.16 257.64 992.37 259.62C992.59 261.6 992.92 263.57 993.36 265.52C993.81 267.46 994.37 269.38 995.04 271.26C995.71 273.13 996.49 274.97 997.37 276.76C998.82 279.81 1000.69 282.63 1002.94 285.14C1005.19 287.66 1007.79 289.84 1010.65 291.61C1013.52 293.39 1016.62 294.75 1019.87 295.65C1023.13 296.55 1026.49 296.97 1029.86 296.92C1030.92 296.93 1031.99 296.91 1033.05 296.84C1034.11 296.78 1035.17 296.68 1036.23 296.55C1037.28 296.41 1038.33 296.24 1039.37 296.03C1040.42 295.82 1041.45 295.58 1042.48 295.3C1043.46 295.02 1044.42 294.7 1045.38 294.34C1046.33 293.99 1047.27 293.6 1048.2 293.18C1049.12 292.75 1050.03 292.29 1050.92 291.8C1051.82 291.31 1052.69 290.79 1053.54 290.23C1054.41 289.67 1055.26 289.1 1056.11 288.51C1056.95 287.93 1057.78 287.32 1058.61 286.71C1059.43 286.09 1060.24 285.46 1061.04 284.81C1061.84 284.17 1062.63 283.5 1063.41 282.83C1066.41 280.2 1070.31 276.63 1075.11 272.11C1077.11 270.42 1079.93 269.58 1083.56 269.58C1084.42 269.54 1085.29 269.58 1086.14 269.7C1087 269.82 1087.84 270.02 1088.66 270.3C1089.48 270.58 1090.27 270.93 1091.02 271.35C1091.78 271.77 1092.49 272.27 1093.15 272.82C1095.59 274.98 1096.81 278.03 1096.82 281.98C1096.82 285.46 1095.46 289.52 1092.73 294.17C1091.93 295.47 1091.06 296.73 1090.14 297.94C1089.21 299.16 1088.23 300.33 1087.2 301.45C1086.16 302.57 1085.07 303.65 1083.94 304.67C1082.8 305.69 1081.62 306.65 1080.39 307.56C1078.83 308.73 1077.22 309.83 1075.56 310.86C1073.91 311.9 1072.21 312.86 1070.48 313.75C1068.74 314.64 1066.97 315.46 1065.17 316.21C1063.36 316.95 1061.53 317.62 1059.67 318.21C1051.36 321.03 1041.8 322.44 1030.99 322.44C1006.27 322.44 987.05 315.39 973.33 301.29C959.61 287.19 952.75 268.07 952.75 243.92C952.73 241.24 952.81 238.55 953.02 235.88C953.22 233.2 953.53 230.54 953.96 227.89C954.38 225.24 954.92 222.61 955.57 220C956.21 217.4 956.97 214.82 957.83 212.28C958.61 209.97 959.51 207.7 960.52 205.48C961.54 203.26 962.67 201.1 963.92 199C965.16 196.9 966.51 194.87 967.97 192.91C969.42 190.95 970.98 189.07 972.63 187.28C974.29 185.52 976.06 183.85 977.91 182.28C979.76 180.72 981.7 179.26 983.72 177.91C985.74 176.57 987.83 175.34 989.99 174.23C992.14 173.12 994.36 172.14 996.63 171.28C999.14 170.33 1001.7 169.49 1004.29 168.78C1006.89 168.07 1009.51 167.47 1012.16 167.01C1014.81 166.54 1017.47 166.2 1020.15 165.98C1022.83 165.77 1025.52 165.67 1028.21 165.71C1043.24 165.71 1056.14 168.88 1066.9 175.22C1077.66 181.56 1085.69 189.75 1091 199.8C1092.29 202.14 1093.43 204.57 1094.42 207.05C1095.41 209.54 1096.24 212.08 1096.91 214.67C1097.59 217.26 1098.1 219.88 1098.45 222.53C1098.8 225.19 1098.98 227.86 1099 230.53C1099 240.21 1096.23 246.48 1090.68 249.35C1085.13 252.22 1077.36 253.65 1067.35 253.65ZM992.08 231.8L1061.86 231.8C1060.92 218.64 1057.37 208.8 1051.21 202.27C1045.05 195.74 1036.95 192.48 1026.9 192.47C1017.31 192.47 1009.44 195.78 1003.29 202.41C997.14 209.04 993.41 218.83 992.08 231.8Z" />
			<path id="Layer" fill-rule="evenodd" class="shp1" d="M1309.1 300.45L1309.1 296.64C1307.96 297.98 1306.78 299.28 1305.57 300.56C1304.36 301.83 1303.12 303.07 1301.84 304.28C1300.57 305.48 1299.26 306.65 1297.92 307.79C1296.58 308.93 1295.21 310.03 1293.81 311.09C1292.57 312.01 1291.3 312.88 1289.99 313.69C1288.68 314.51 1287.34 315.27 1285.97 315.98C1284.6 316.68 1283.2 317.34 1281.78 317.93C1280.36 318.53 1278.91 319.07 1277.45 319.55C1275.9 320.04 1274.33 320.47 1272.74 320.84C1271.16 321.21 1269.56 321.52 1267.94 321.76C1266.33 322 1264.72 322.18 1263.09 322.29C1261.47 322.41 1259.84 322.46 1258.21 322.44C1256 322.46 1253.8 322.35 1251.6 322.11C1249.41 321.87 1247.23 321.5 1245.08 321.01C1242.92 320.52 1240.8 319.9 1238.72 319.16C1236.64 318.42 1234.61 317.56 1232.63 316.58C1230.65 315.59 1228.73 314.49 1226.87 313.29C1225.01 312.08 1223.22 310.78 1221.51 309.37C1219.8 307.97 1218.16 306.47 1216.62 304.88C1215.07 303.3 1213.62 301.63 1212.26 299.88C1210.79 297.98 1209.41 296.02 1208.12 293.99C1206.83 291.97 1205.64 289.88 1204.55 287.74C1203.46 285.6 1202.47 283.41 1201.59 281.18C1200.71 278.95 1199.93 276.68 1199.26 274.37C1198.5 271.8 1197.84 269.2 1197.27 266.58C1196.71 263.97 1196.24 261.33 1195.87 258.67C1195.5 256.02 1195.22 253.35 1195.05 250.68C1194.87 248.01 1194.8 245.33 1194.82 242.65C1194.82 218.6 1200.69 199.86 1212.44 186.41C1224.19 172.96 1239.65 166.24 1258.82 166.25C1269.91 166.25 1279.24 168.15 1286.82 171.96C1294.4 175.77 1301.82 181.62 1309.09 189.51L1309.09 132.7C1309.09 124.81 1310.66 118.85 1313.81 114.8C1316.96 110.75 1321.44 108.73 1327.27 108.74C1333.1 108.74 1337.58 110.6 1340.73 114.31C1343.88 118.02 1345.45 123.5 1345.46 130.73L1345.46 300.45C1345.46 307.78 1343.77 313.28 1340.38 316.94C1339.55 317.84 1338.63 318.65 1337.63 319.36C1336.63 320.06 1335.56 320.65 1334.43 321.13C1333.3 321.6 1332.12 321.95 1330.92 322.17C1329.72 322.39 1328.49 322.48 1327.27 322.44C1326.05 322.47 1324.83 322.36 1323.63 322.12C1322.43 321.88 1321.26 321.52 1320.14 321.02C1319.02 320.53 1317.96 319.92 1316.97 319.2C1315.98 318.48 1315.08 317.65 1314.27 316.73C1310.82 312.91 1309.09 307.48 1309.1 300.45ZM1238.27 270.56C1241.51 277.89 1245.95 283.41 1251.59 287.12C1252.94 288.03 1254.37 288.84 1255.84 289.53C1257.32 290.23 1258.84 290.82 1260.4 291.29C1261.96 291.76 1263.56 292.12 1265.17 292.35C1266.79 292.58 1268.42 292.7 1270.05 292.69C1271.68 292.7 1273.31 292.6 1274.92 292.39C1276.54 292.17 1278.13 291.83 1279.7 291.39C1281.27 290.94 1282.8 290.38 1284.29 289.72C1285.78 289.05 1287.21 288.28 1288.59 287.41C1294.18 283.88 1298.65 278.47 1301.98 271.2C1305.31 263.93 1306.98 254.83 1306.98 243.92C1306.98 233.68 1305.31 224.87 1301.98 217.49C1298.65 210.11 1294.14 204.47 1288.45 200.58C1287.09 199.63 1285.66 198.78 1284.17 198.05C1282.69 197.32 1281.15 196.7 1279.56 196.21C1277.98 195.71 1276.36 195.34 1274.72 195.09C1273.08 194.84 1271.43 194.72 1269.77 194.73C1268.09 194.71 1266.41 194.82 1264.75 195.07C1263.08 195.32 1261.44 195.7 1259.84 196.2C1258.24 196.71 1256.68 197.35 1255.18 198.11C1253.68 198.87 1252.24 199.74 1250.88 200.73C1245.34 204.73 1241.04 210.46 1237.99 217.92C1234.94 225.38 1233.41 234.05 1233.41 243.92C1233.41 254.35 1235.03 263.23 1238.27 270.56Z" />
			<path id="Layer" fill-rule="evenodd" class="shp1" d="M1491.5 253.65L1416.23 253.65C1416.21 255.64 1416.31 257.64 1416.52 259.62C1416.73 261.6 1417.07 263.57 1417.51 265.52C1417.96 267.46 1418.51 269.38 1419.18 271.26C1419.85 273.14 1420.63 274.97 1421.52 276.76C1422.97 279.8 1424.84 282.63 1427.09 285.14C1429.34 287.65 1431.93 289.83 1434.8 291.61C1437.66 293.39 1440.77 294.75 1444.02 295.65C1447.27 296.54 1450.63 296.97 1454 296.92C1455.06 296.93 1456.13 296.91 1457.19 296.84C1458.25 296.78 1459.31 296.68 1460.36 296.55C1461.42 296.41 1462.46 296.24 1463.51 296.03C1464.55 295.82 1465.58 295.58 1466.61 295.3C1467.59 295.02 1468.56 294.7 1469.51 294.35C1470.47 293.99 1471.41 293.6 1472.33 293.18C1473.26 292.75 1474.17 292.29 1475.06 291.8C1475.95 291.31 1476.83 290.79 1477.68 290.23C1478.55 289.67 1479.4 289.1 1480.25 288.51C1481.09 287.93 1481.92 287.32 1482.75 286.71C1483.57 286.09 1484.38 285.46 1485.18 284.81C1485.98 284.17 1486.77 283.5 1487.55 282.83C1490.55 280.2 1494.45 276.63 1499.24 272.11C1501.24 270.42 1504.06 269.58 1507.7 269.58C1508.56 269.54 1509.43 269.58 1510.28 269.71C1511.14 269.83 1511.98 270.03 1512.8 270.3C1513.62 270.58 1514.41 270.93 1515.16 271.35C1515.91 271.78 1516.63 272.27 1517.29 272.82C1519.73 274.98 1520.95 278.03 1520.95 281.98C1520.95 285.46 1519.59 289.52 1516.86 294.17C1516.06 295.47 1515.19 296.73 1514.27 297.94C1513.35 299.16 1512.37 300.33 1511.33 301.45C1510.3 302.58 1509.21 303.65 1508.08 304.67C1506.94 305.69 1505.76 306.65 1504.53 307.56C1502.97 308.73 1501.36 309.83 1499.7 310.86C1498.05 311.9 1496.35 312.86 1494.62 313.75C1492.88 314.64 1491.11 315.46 1489.31 316.21C1487.5 316.95 1485.67 317.62 1483.81 318.21C1475.49 321.03 1465.93 322.44 1455.12 322.44C1430.41 322.44 1411.19 315.39 1397.47 301.29C1383.75 287.19 1376.89 268.07 1376.89 243.92C1376.86 241.24 1376.95 238.55 1377.15 235.88C1377.35 233.2 1377.67 230.53 1378.09 227.89C1378.52 225.24 1379.06 222.61 1379.7 220C1380.35 217.4 1381.11 214.82 1381.97 212.28C1382.75 209.97 1383.65 207.7 1384.66 205.48C1385.68 203.26 1386.81 201.1 1388.05 199C1389.3 196.9 1390.65 194.87 1392.1 192.91C1393.56 190.95 1395.12 189.07 1396.77 187.28C1398.43 185.52 1400.2 183.85 1402.05 182.28C1403.9 180.72 1405.84 179.26 1407.86 177.91C1409.88 176.57 1411.97 175.34 1414.13 174.23C1416.28 173.12 1418.5 172.14 1420.77 171.28C1423.28 170.33 1425.84 169.49 1428.43 168.78C1431.03 168.07 1433.65 167.47 1436.3 167.01C1438.95 166.54 1441.61 166.2 1444.29 165.98C1446.97 165.77 1449.66 165.67 1452.35 165.71C1467.38 165.71 1480.27 168.88 1491.04 175.22C1501.81 181.56 1509.86 189.76 1515.21 199.82C1516.5 202.16 1517.64 204.58 1518.63 207.07C1519.62 209.55 1520.45 212.1 1521.13 214.69C1521.8 217.27 1522.31 219.9 1522.66 222.55C1523.01 225.21 1523.19 227.88 1523.21 230.55C1523.21 240.23 1520.44 246.5 1514.89 249.37C1509.34 252.24 1501.55 253.66 1491.5 253.65ZM1486 231.8C1485.06 218.64 1481.51 208.8 1475.36 202.27C1469.21 195.74 1461.1 192.48 1451.05 192.47C1441.46 192.47 1433.59 195.78 1427.44 202.41C1421.29 209.04 1417.55 218.83 1416.23 231.8L1486 231.8Z" />
			<path id="Layer" class="shp1" d="M1660.23 210.09L1589.75 288.89L1665.16 288.89C1671.27 288.89 1675.87 290.32 1678.98 293.19C1679.74 293.89 1680.42 294.67 1681.02 295.51C1681.61 296.35 1682.11 297.26 1682.51 298.21C1682.91 299.16 1683.21 300.16 1683.4 301.17C1683.59 302.19 1683.66 303.22 1683.63 304.25C1683.66 305.24 1683.58 306.24 1683.4 307.21C1683.21 308.19 1682.92 309.14 1682.52 310.05C1682.13 310.96 1681.64 311.82 1681.05 312.63C1680.47 313.43 1679.8 314.16 1679.05 314.82C1675.99 317.55 1671.36 318.92 1665.16 318.91L1560.85 318.91C1553.52 318.91 1548.04 317.31 1544.43 314.12C1540.82 310.93 1539.01 306.55 1539 301C1539 297.71 1540.27 294.4 1542.81 291.06C1545.35 287.72 1550.61 281.59 1558.6 272.67C1567.06 263.27 1574.74 254.76 1581.65 247.15C1588.56 239.54 1594.97 232.42 1600.89 225.8C1606.81 219.17 1611.72 213.56 1615.62 208.95C1619.52 204.34 1622.64 200.4 1624.99 197.11L1567.76 197.11C1559.87 197.11 1553.9 196.41 1549.86 195C1545.82 193.59 1543.8 189.88 1543.8 183.86C1543.76 182.87 1543.83 181.87 1544.01 180.89C1544.19 179.92 1544.48 178.96 1544.88 178.05C1545.27 177.14 1545.77 176.27 1546.36 175.47C1546.95 174.67 1547.63 173.94 1548.38 173.29C1551.43 170.66 1555.76 169.32 1561.38 169.29L1649.76 169.29C1657.93 169.29 1664.21 170.49 1668.58 172.89C1672.95 175.29 1675.14 179.59 1675.13 185.79C1675.12 186.34 1675.09 186.88 1675.04 187.43C1674.98 187.97 1674.9 188.52 1674.79 189.05C1674.68 189.59 1674.55 190.12 1674.4 190.65C1674.24 191.17 1674.06 191.69 1673.86 192.2C1673.69 192.68 1673.5 193.16 1673.29 193.63C1673.09 194.09 1672.87 194.56 1672.63 195.01C1672.4 195.46 1672.15 195.91 1671.88 196.35C1671.61 196.78 1671.33 197.21 1671.04 197.63C1670.01 199.04 1668.6 200.76 1666.82 202.77C1665.04 204.78 1662.84 207.22 1660.23 210.09Z" />
			<path id="Layer" class="shp1" d="M1742.51 74.15C1740.73 74.19 1738.94 74.07 1737.18 73.78C1735.42 73.5 1733.69 73.05 1732.01 72.44C1730.33 71.84 1728.71 71.09 1727.17 70.19C1725.63 69.29 1724.17 68.25 1722.82 67.08C1717.37 62.37 1714.65 55.71 1714.64 47.08C1714.59 45.27 1714.74 43.46 1715.08 41.68C1715.42 39.91 1715.96 38.17 1716.68 36.51C1717.4 34.85 1718.3 33.27 1719.36 31.81C1720.43 30.34 1721.65 29 1723 27.8C1724.31 26.58 1725.73 25.49 1727.24 24.54C1728.75 23.59 1730.35 22.79 1732.02 22.14C1733.68 21.49 1735.41 21.01 1737.16 20.69C1738.92 20.37 1740.7 20.21 1742.49 20.23C1744.21 20.21 1745.93 20.35 1747.63 20.64C1749.32 20.92 1750.99 21.36 1752.61 21.95C1754.23 22.53 1755.79 23.26 1757.28 24.12C1758.77 24.98 1760.18 25.98 1761.49 27.09C1767.01 31.67 1769.77 38.34 1769.77 47.09C1769.77 55.57 1767.08 62.2 1761.7 66.98C1760.4 68.15 1758.99 69.19 1757.5 70.1C1756 71.01 1754.42 71.77 1752.78 72.38C1751.15 73 1749.45 73.45 1747.73 73.75C1746.01 74.05 1744.26 74.18 1742.51 74.15ZM1769.77 131.1L1769.77 290.44C1769.77 301.48 1767.15 309.81 1761.9 315.44C1760.64 316.82 1759.23 318.06 1757.71 319.14C1756.18 320.22 1754.54 321.13 1752.82 321.86C1751.1 322.59 1749.31 323.13 1747.47 323.48C1745.64 323.82 1743.77 323.97 1741.9 323.92C1733.82 323.92 1727.25 321.03 1722.2 315.24C1717.15 309.45 1714.62 301.17 1714.63 290.4L1714.63 132.71C1714.63 121.81 1717.15 113.6 1722.2 108.08C1727.25 102.56 1733.81 99.8 1741.9 99.8C1749.97 99.8 1756.63 102.56 1761.9 108.08C1767.17 113.6 1769.79 121.27 1769.77 131.1L1769.77 131.1Z" />
			<path id="Layer" fill-rule="evenodd" class="shp1" d="M1959.23 194.49L1959.23 306C1959.23 318.74 1957.87 329.7 1955.15 338.89C1954.56 341.02 1953.84 343.12 1952.99 345.16C1952.14 347.2 1951.16 349.19 1950.05 351.11C1948.95 353.03 1947.73 354.88 1946.39 356.64C1945.06 358.41 1943.62 360.09 1942.07 361.67C1936.07 367.67 1928.22 372.12 1918.53 375.03C1908.84 377.94 1896.77 379.39 1882.32 379.39C1869.11 379.39 1857.3 377.54 1846.89 373.83C1836.48 370.12 1828.48 365.34 1822.89 359.49C1817.27 353.63 1814.46 347.61 1814.46 341.43C1814.42 340.37 1814.5 339.3 1814.69 338.25C1814.88 337.21 1815.18 336.18 1815.59 335.2C1815.99 334.22 1816.51 333.28 1817.11 332.41C1817.72 331.53 1818.42 330.72 1819.2 330C1819.97 329.28 1820.81 328.63 1821.7 328.07C1822.6 327.51 1823.54 327.03 1824.53 326.66C1825.52 326.28 1826.54 325.99 1827.58 325.81C1828.62 325.63 1829.67 325.55 1830.73 325.57C1836.35 325.57 1841.27 328.05 1845.49 333.02C1847.55 335.55 1849.68 338.1 1851.88 340.68C1852.41 341.31 1852.97 341.92 1853.54 342.51C1854.12 343.1 1854.71 343.68 1855.32 344.23C1855.93 344.78 1856.56 345.31 1857.21 345.82C1857.86 346.33 1858.52 346.82 1859.2 347.29C1859.93 347.77 1860.68 348.22 1861.46 348.64C1862.23 349.05 1863.02 349.43 1863.83 349.78C1864.63 350.12 1865.46 350.42 1866.29 350.69C1867.13 350.95 1867.97 351.18 1868.83 351.37C1869.89 351.61 1870.96 351.81 1872.03 351.98C1873.1 352.16 1874.18 352.3 1875.26 352.41C1876.34 352.52 1877.42 352.6 1878.5 352.65C1879.59 352.7 1880.67 352.71 1881.76 352.7C1891.69 352.7 1899.4 351.32 1904.89 348.56C1906.15 347.97 1907.36 347.27 1908.5 346.47C1909.64 345.67 1910.7 344.77 1911.68 343.78C1912.67 342.8 1913.56 341.72 1914.35 340.58C1915.15 339.44 1915.84 338.22 1916.42 336.96C1916.98 335.7 1917.47 334.41 1917.91 333.1C1918.36 331.8 1918.74 330.47 1919.06 329.13C1919.39 327.79 1919.65 326.44 1919.85 325.07C1920.06 323.71 1920.2 322.34 1920.28 320.96C1920.66 315.29 1920.94 306.17 1921.13 293.61C1919.8 295.53 1918.37 297.38 1916.83 299.15C1915.3 300.91 1913.67 302.59 1911.95 304.17C1910.23 305.75 1908.43 307.24 1906.54 308.62C1904.66 310.01 1902.7 311.28 1900.67 312.45C1892.94 316.77 1883.73 318.93 1873.04 318.92C1860.2 318.92 1848.98 315.64 1839.37 309.08C1829.76 302.52 1822.38 293.33 1817.23 281.52C1812.07 269.71 1809.49 256.07 1809.5 240.61C1809.46 237.97 1809.53 235.33 1809.71 232.69C1809.89 230.05 1810.18 227.42 1810.57 224.81C1810.97 222.2 1811.47 219.6 1812.08 217.03C1812.68 214.46 1813.39 211.91 1814.21 209.4C1814.91 207.24 1815.71 205.11 1816.63 203.04C1817.55 200.96 1818.57 198.93 1819.7 196.96C1820.82 194.99 1822.05 193.08 1823.38 191.23C1824.7 189.39 1826.12 187.62 1827.63 185.92C1829.02 184.37 1830.49 182.91 1832.04 181.52C1833.59 180.13 1835.21 178.83 1836.9 177.62C1838.59 176.41 1840.34 175.29 1842.15 174.27C1843.97 173.25 1845.83 172.33 1847.74 171.51C1849.71 170.69 1851.73 169.97 1853.77 169.35C1855.82 168.73 1857.9 168.22 1859.99 167.81C1862.09 167.41 1864.21 167.11 1866.34 166.91C1868.47 166.72 1870.6 166.64 1872.74 166.66C1883.61 166.66 1893.03 168.75 1901 172.92C1908.97 177.09 1916.37 183.63 1923.22 192.53L1923.22 187.33C1923.22 180.66 1924.86 175.51 1928.14 171.86C1928.93 170.97 1929.81 170.17 1930.77 169.47C1931.73 168.77 1932.76 168.18 1933.85 167.71C1934.94 167.24 1936.08 166.89 1937.25 166.66C1938.42 166.44 1939.6 166.34 1940.79 166.38C1948.19 166.38 1953.11 168.79 1955.55 173.62C1957.99 178.45 1959.22 185.4 1959.23 194.49ZM1848 243.13C1848 258.69 1851.4 270.45 1858.19 278.42C1864.98 286.39 1873.77 290.37 1884.55 290.37C1886.14 290.37 1887.72 290.26 1889.29 290.04C1890.86 289.82 1892.42 289.5 1893.94 289.06C1895.47 288.63 1896.96 288.09 1898.41 287.45C1899.86 286.81 1901.27 286.07 1902.62 285.24C1908.29 281.82 1912.9 276.66 1916.47 269.77C1920.04 262.88 1921.82 254.51 1921.81 244.68C1921.81 229.03 1918.36 216.84 1911.47 208.12C1904.58 199.4 1895.51 195.04 1884.27 195.05C1873.31 195.05 1864.52 199.22 1857.91 207.56C1851.3 215.9 1847.99 227.76 1848 243.13Z" />
			<path id="Layer" class="shp1" d="M2032.9 187.6L2032.9 192.24C2039.63 183.33 2047 176.8 2055 172.63C2063 168.46 2072.21 166.38 2082.63 166.37C2084.99 166.33 2087.34 166.44 2089.69 166.7C2092.03 166.96 2094.35 167.37 2096.64 167.93C2098.93 168.49 2101.18 169.2 2103.38 170.04C2105.58 170.89 2107.73 171.88 2109.8 173C2111.73 174.04 2113.57 175.23 2115.31 176.56C2117.06 177.89 2118.69 179.36 2120.2 180.94C2121.72 182.53 2123.11 184.23 2124.35 186.03C2125.6 187.83 2126.71 189.73 2127.66 191.7C2128.29 192.88 2128.87 194.08 2129.4 195.31C2129.92 196.54 2130.39 197.8 2130.8 199.07C2131.22 200.34 2131.57 201.63 2131.87 202.93C2132.16 204.24 2132.4 205.55 2132.58 206.88C2132.79 208.61 2132.97 210.33 2133.12 212.07C2133.27 213.8 2133.39 215.53 2133.48 217.27C2133.58 219 2133.64 220.74 2133.68 222.48C2133.71 224.21 2133.72 225.95 2133.7 227.69L2133.7 299.11C2133.7 306.79 2131.94 312.6 2128.43 316.54C2126.65 318.42 2124.5 319.91 2122.12 320.93C2119.74 321.94 2117.17 322.46 2114.58 322.45C2112 322.44 2109.44 321.89 2107.07 320.85C2104.7 319.81 2102.56 318.3 2100.8 316.4C2097.24 312.4 2095.46 306.64 2095.46 299.11L2095.46 235.11C2095.46 222.44 2093.7 212.78 2090.19 206.11C2086.68 199.44 2079.68 196.09 2069.19 196.05C2067.52 196.04 2065.85 196.17 2064.2 196.42C2062.56 196.68 2060.93 197.07 2059.34 197.59C2057.76 198.11 2056.21 198.76 2054.73 199.52C2053.25 200.29 2051.83 201.18 2050.49 202.17C2049.07 203.22 2047.72 204.37 2046.47 205.62C2045.22 206.88 2044.06 208.22 2043.02 209.64C2041.97 211.07 2041.03 212.57 2040.2 214.14C2039.38 215.7 2038.68 217.33 2038.1 219C2036.22 224.72 2035.28 235.4 2035.29 251.05L2035.29 299.14C2035.29 306.92 2033.48 312.75 2029.87 316.64C2028.98 317.6 2028 318.46 2026.93 319.21C2025.86 319.95 2024.71 320.58 2023.51 321.09C2022.3 321.59 2021.05 321.96 2019.76 322.19C2018.48 322.43 2017.17 322.52 2015.87 322.48C2014.58 322.51 2013.3 322.4 2012.04 322.15C2010.78 321.9 2009.55 321.51 2008.37 320.99C2007.2 320.47 2006.08 319.82 2005.05 319.05C2004.02 318.28 2003.08 317.41 2002.24 316.43C1998.67 312.43 1996.88 306.67 1996.89 299.14L1996.89 188.16C1996.89 180.83 1998.48 175.37 2001.67 171.78C2004.86 168.19 2009.22 166.39 2014.75 166.37C2015.55 166.36 2016.34 166.4 2017.14 166.5C2017.93 166.6 2018.71 166.75 2019.48 166.95C2020.25 167.15 2021.01 167.4 2021.75 167.71C2022.48 168.01 2023.2 168.36 2023.89 168.76C2024.59 169.18 2025.26 169.66 2025.9 170.18C2026.53 170.7 2027.13 171.27 2027.68 171.87C2028.23 172.48 2028.74 173.12 2029.2 173.8C2029.66 174.48 2030.07 175.19 2030.43 175.93C2030.86 176.84 2031.24 177.77 2031.56 178.72C2031.89 179.67 2032.15 180.64 2032.36 181.62C2032.57 182.6 2032.72 183.59 2032.81 184.59C2032.9 185.59 2032.93 186.6 2032.9 187.6Z" />
			<g id="Layer" style="opacity: 0.129">
				<path id="Layer" class="shp0" d="M1340.74 114.25C1337.6 110.53 1333.11 108.67 1327.28 108.68C1321.45 108.69 1316.96 110.71 1313.82 114.74C1310.67 118.78 1309.1 124.75 1309.1 132.64L1309.1 189.45C1301.86 181.55 1294.44 175.7 1286.83 171.9C1279.22 168.1 1269.89 166.2 1258.83 166.19C1239.66 166.19 1224.2 172.91 1212.45 186.35C1200.7 199.79 1194.83 218.54 1194.83 242.59C1194.83 244.24 1194.86 245.89 1194.92 247.53C1194.99 249.18 1195.09 250.83 1195.23 252.47C1195.36 254.11 1195.53 255.75 1195.74 257.39C1195.94 259.02 1196.18 260.65 1196.46 262.28C1208.14 261.86 1221.11 261.36 1235.18 260.77C1234.88 259.38 1234.62 257.99 1234.4 256.58C1234.18 255.18 1234 253.77 1233.85 252.36C1233.71 250.95 1233.61 249.53 1233.54 248.12C1233.47 246.7 1233.45 245.28 1233.46 243.86C1233.46 233.99 1234.99 225.32 1238.04 217.86C1241.09 210.4 1245.39 204.67 1250.93 200.66C1252.29 199.67 1253.73 198.8 1255.23 198.04C1256.73 197.28 1258.29 196.65 1259.89 196.14C1261.49 195.63 1263.13 195.25 1264.8 195C1266.46 194.75 1268.14 194.64 1269.82 194.66C1271.48 194.65 1273.13 194.77 1274.77 195.02C1276.41 195.27 1278.03 195.64 1279.61 196.14C1281.2 196.63 1282.74 197.25 1284.22 197.98C1285.71 198.71 1287.14 199.56 1288.5 200.51C1294.18 204.41 1298.69 210.05 1302.03 217.43C1305.37 224.81 1307.04 233.62 1307.03 243.86C1307.04 244.99 1307.02 246.12 1306.98 247.25C1306.94 248.38 1306.88 249.5 1306.8 250.63C1306.71 251.76 1306.61 252.88 1306.48 254C1306.35 255.12 1306.2 256.24 1306.03 257.36C1318.75 256.67 1331.94 255.91 1345.53 255.09L1345.53 130.67C1345.49 123.43 1343.89 117.96 1340.74 114.25Z" />
				<path id="Layer" fill-rule="evenodd" class="shp0" d="M1515.18 199.74C1516.47 202.08 1517.61 204.5 1518.59 206.98C1519.58 209.46 1520.42 211.99 1521.09 214.58C1521.76 217.16 1522.28 219.78 1522.63 222.43C1522.98 225.08 1523.16 227.74 1523.18 230.41C1523.2 231.34 1523.19 232.27 1523.13 233.21C1523.07 234.14 1522.97 235.06 1522.83 235.98C1522.69 236.91 1522.51 237.82 1522.29 238.73C1522.06 239.63 1521.8 240.53 1521.5 241.41C1471.56 246.21 1422.65 250.04 1377.22 253.04C1376.99 250.06 1376.86 246.99 1376.86 243.84C1376.83 241.16 1376.92 238.47 1377.12 235.79C1377.32 233.12 1377.64 230.45 1378.06 227.8C1378.49 225.15 1379.03 222.52 1379.67 219.91C1380.32 217.31 1381.08 214.73 1381.94 212.19C1382.72 209.88 1383.62 207.61 1384.63 205.39C1385.65 203.17 1386.78 201.01 1388.02 198.91C1389.27 196.81 1390.62 194.78 1392.07 192.82C1393.53 190.86 1395.09 188.98 1396.74 187.19C1398.4 185.43 1400.17 183.76 1402.02 182.19C1403.87 180.63 1405.81 179.17 1407.83 177.83C1409.85 176.48 1411.94 175.25 1414.1 174.14C1416.25 173.03 1418.47 172.05 1420.74 171.19C1423.25 170.24 1425.81 169.41 1428.4 168.69C1431 167.98 1433.62 167.39 1436.27 166.93C1438.92 166.46 1441.58 166.12 1444.26 165.9C1446.94 165.69 1449.63 165.59 1452.32 165.63C1467.33 165.63 1480.23 168.8 1491.01 175.14C1501.79 181.48 1509.85 189.68 1515.18 199.74ZM1486 231.73C1485.03 218.58 1481.46 208.74 1475.31 202.21C1469.16 195.68 1461.05 192.42 1451 192.42C1441.4 192.42 1433.53 195.73 1427.39 202.36C1421.25 208.99 1417.51 218.78 1416.18 231.74L1486 231.73Z" />
				<path id="Layer" class="shp0" d="M1666.86 202.77C1668.64 200.77 1670.05 199.05 1671.08 197.62C1671.37 197.2 1671.65 196.78 1671.92 196.34C1672.19 195.9 1672.44 195.46 1672.67 195.01C1672.91 194.55 1673.13 194.09 1673.33 193.62C1673.54 193.16 1673.73 192.68 1673.9 192.2C1674.1 191.69 1674.28 191.17 1674.44 190.65C1674.59 190.12 1674.73 189.59 1674.83 189.05C1674.94 188.51 1675.02 187.97 1675.08 187.42C1675.13 186.88 1675.16 186.33 1675.17 185.78C1675.17 179.58 1672.99 175.28 1668.62 172.88C1664.25 170.48 1657.98 169.28 1649.8 169.29L1561.42 169.29C1555.78 169.29 1551.45 170.62 1548.42 173.29C1547.67 173.94 1546.99 174.67 1546.4 175.47C1545.81 176.27 1545.31 177.14 1544.92 178.05C1544.52 178.96 1544.23 179.92 1544.05 180.89C1543.87 181.87 1543.8 182.87 1543.84 183.86C1543.84 189.86 1545.84 193.59 1549.9 194.99C1553.96 196.39 1559.9 197.11 1567.8 197.11L1625 197.11C1622.65 200.4 1619.53 204.35 1615.63 208.95C1611.73 213.55 1606.82 219.16 1600.9 225.79L1593.63 233.9C1610.64 231.94 1627.61 229.86 1644.52 227.65L1660.23 210C1662.86 207.2 1665.07 204.79 1666.86 202.77Z" />
				<path id="Layer" class="shp0" d="M1761.49 27C1760.18 25.89 1758.77 24.89 1757.28 24.03C1755.79 23.17 1754.23 22.44 1752.61 21.85C1750.99 21.27 1749.32 20.83 1747.63 20.54C1745.93 20.25 1744.21 20.11 1742.49 20.13C1740.7 20.12 1738.92 20.27 1737.16 20.6C1735.4 20.92 1733.68 21.41 1732.01 22.06C1730.35 22.71 1728.75 23.52 1727.24 24.47C1725.72 25.42 1724.31 26.52 1723 27.74C1721.65 28.94 1720.43 30.28 1719.37 31.75C1718.3 33.21 1717.41 34.78 1716.69 36.44C1715.97 38.1 1715.43 39.83 1715.08 41.61C1714.74 43.38 1714.59 45.19 1714.64 47C1714.64 55.62 1717.37 62.29 1722.82 67C1724.17 68.17 1725.63 69.21 1727.17 70.11C1728.71 71.01 1730.33 71.76 1732.01 72.36C1733.69 72.97 1735.42 73.42 1737.18 73.7C1738.94 73.99 1740.73 74.11 1742.51 74.07C1744.26 74.1 1746.01 73.97 1747.73 73.67C1749.45 73.37 1751.15 72.92 1752.78 72.3C1754.42 71.69 1756 70.93 1757.5 70.02C1758.99 69.11 1760.4 68.07 1761.7 66.9C1767.08 62.12 1769.77 55.49 1769.77 47C1769.77 38.27 1767.01 31.6 1761.49 27Z" />
				<path id="Layer" class="shp0" d="M1761.9 108C1756.65 102.48 1749.99 99.72 1741.9 99.72C1733.81 99.72 1727.25 102.48 1722.2 108C1717.16 113.52 1714.64 121.73 1714.63 132.64L1714.63 217.5C1733.38 214.5 1751.8 211.39 1769.76 208.04L1769.76 131C1769.77 121.2 1767.15 113.53 1761.9 108Z" />
				<path id="Layer" class="shp0" d="M1901 172.84C1893 168.67 1883.58 166.58 1872.74 166.59C1870.6 166.57 1868.47 166.65 1866.34 166.84C1864.21 167.03 1862.09 167.33 1859.99 167.74C1857.89 168.15 1855.82 168.66 1853.77 169.28C1851.73 169.9 1849.71 170.62 1847.74 171.44C1845.83 172.26 1843.97 173.18 1842.15 174.2C1840.34 175.22 1838.59 176.34 1836.9 177.55C1835.21 178.76 1833.59 180.06 1832.04 181.45C1830.49 182.84 1829.02 184.3 1827.63 185.85C1826.79 186.78 1825.99 187.73 1825.21 188.7C1824.43 189.68 1823.69 190.68 1822.97 191.7C1822.25 192.72 1821.57 193.77 1820.92 194.83C1820.26 195.89 1819.65 196.98 1819.06 198.08C1850.13 191.26 1879.21 183.74 1905.43 175.46C1904 174.52 1902.51 173.62 1901 172.84Z" />
			</g>
			<path id="Layer" class="shp2" d="M151.95 83.24L243.87 -8.68C253.65 -18.46 269.45 -18.46 279.23 -8.68L371.15 83.24C380.93 93.02 380.93 108.82 371.15 118.6L279.23 210.52C269.45 220.3 253.65 220.3 243.87 210.52L151.95 118.6C142.17 108.82 142.17 93.02 151.95 83.24Z" />
			<path id="Layer" class="shp1" d="M7.31 225.88L99.24 133.95C109.01 124.18 124.82 124.18 134.59 133.95L226.52 225.88C236.29 235.65 236.29 251.46 226.52 261.23L134.59 353.16C124.82 362.93 109.01 362.93 99.24 353.16L7.31 261.23C-2.46 251.46 -2.46 235.65 7.31 225.88Z" />
			<path id="Layer" class="shp3" d="M151.94 369.1L243.87 277.18C253.64 267.4 269.45 267.4 279.22 277.18L371.15 369.1C380.92 378.88 380.92 394.68 371.15 404.46L279.22 496.38C269.45 506.15 253.64 506.15 243.87 496.38L151.94 404.46C142.17 394.68 142.17 378.88 151.94 369.1Z" />
		</g>
	</g>
</svg>