<svg version="1.2" xmlns="http://www.w3.org/2000/svg" viewBox="0 0 200 100" width="200" height="100"><style>.s0{fill:#ffffff}.s1{fill:#cccccc}.s2{fill:#f2f2f2}</style><g style="opacity: .5;mix-blend-mode: multiply"><path class="s0" d="m0 0h200v100h-200z" /><g style="opacity: .5"><path class="s1" d="m128.8 100h-11.2l-17.6-50z" /><path class="s1" d="m200 80v7.7l-100-37.7z" /><path class="s1" d="m200 39.3v5.5l-100 5.2z" /><path class="s1" d="m169.9 0h17.2l-87.1 50z" /><path class="s1" d="m96.6 0l3.4 50l-14.1-50z" /><path class="s1" d="m0.1 0l99.9 50l-100-40.4v-9.6z" /><path class="s1" d="m100 50l-100 3.5v-5.3z" /><path class="s1" d="m100 50l-93.1 50h-6.9v-6.6z" /><path class="s1" d="m100 50l0.1 50h-10.7z" /><path class="s1" d="m193.4 100h-18.2l-75.2-50z" /><path class="s1" d="m200 53.5v5.4l-100-8.9z" /><path class="s1" d="m200 9.4v8.2l-100 32.4z" /><path class="s1" d="m114 0h11l-25 50z" /><path class="s1" d="m44.7 0l55.3 50l-70.1-50z" /><path class="s1" d="m100 50l-100-10.6v-5.7z" /><path class="s1" d="m100 50l-100 30.1v-6.8z" /><path class="s1" d="m100 50l-28.6 50h-11.9z" /><path class="s1" d="m151 100h-12.7l-38.3-50z" /><path class="s1" d="m200 68.2v6.2l-100-24.4z" /><path class="s1" d="m200 28.7v6.1l-100 15.2z" /><path class="s1" d="m144.4 0h13.4l-57.8 50z" /><path class="s1" d="m77 0l23 50l-34.5-50z" /><path class="s1" d="m100 50l-100-26.5v-7.3z" /><path class="s1" d="m100 50l-100 13.4v-5.5z" /><path class="s1" d="m100 50l-62.4 50h-15.8z" /><path class="s1" d="m119.5 100h-10.8l-8.7-50z" /><path class="s1" d="m200 86.3v8.8l-100-45.1z" /><path class="s1" d="m200 43.8v5.4l-100 0.8z" /><path class="s1" d="m183.8 0h16.2v1.8l-100 48.2z" /><path class="s1" d="m105.3 0l-5.3 50l-5.3-50z" /></g><path class="s2" d="m100 50l-100 35.1v-7.4z" /><path class="s2" d="m100 50l-100-7v-5.5z" /><path class="s2" d="m100 50l-81.1-50h16.3z" /><path class="s2" d="m117.7 0l-17.7 50l6.9-50z" /><path class="s2" d="m200 3.3v9.1l-100 37.6z" /><path class="s2" d="m200 50v5.3l-100-5.3z" /><path class="s2" d="m200 96.6v3.4h-13.2l-86.8-50z" /><path class="s2" d="m107.1 100h-10.7l3.6-50z" /><path class="s2" d="m100 50l-80.9 50h-19.1v-0.1z" /><path class="s2" d="m100 50l-100 7.1v-5.4z" /><path class="s2" d="m100 50l-100-35v-8.5z" /><path class="s2" d="m100 50l-21.3-50h10.9z" /><path class="s2" d="m175.5 0l-75.5 50l60-50z" /><path class="s2" d="m200 35.6v5.6l-100 8.8z" /><path class="s2" d="m200 75.4v7.1l-100-32.5z" /><path class="s2" d="m136.5 100h-11.6l-24.9-50z" /><path class="s2" d="m100 50l-42.4 50h-13.1z" /><path class="s2" d="m100 50l-100 22.3v-6.1z" /><path class="s2" d="m100 50l-100-17.2v-6.2z" /><path class="s2" d="m100 50l-53.3-50h13z" /><path class="s2" d="m138.5 0l-38.5 50l26.7-50z" /><path class="s2" d="m200 18.7v7l-100 24.3z" /><path class="s2" d="m200 59.7v5.6l-100-15.3z" /><path class="s2" d="m172.8 100h-15.2l-57.6-50z" /><path class="s2" d="m100 50l-12.2 50h-11z" /><path class="s2" d="m100 50l-100 42v-8.3z" /><path class="s2" d="m100 50l-100-2.6v-5.4z" /><path class="s2" d="m100 50l-96.7-50h18.7z" /><path class="s2" d="m108.8 0l-8.8 50l-1.8-50z" /><path class="s2" d="m200 0v5l-100 45l89.9-50z" /></g></svg>